<svg xmlns="http://www.w3.org/2000/svg" xmlns:xlink="http://www.w3.org/1999/xlink" width="25" height="25" viewBox="0 0 25 25">
  <defs>
    <clipPath id="clip-path">
      <rect id="Rectangle_13" data-name="Rectangle 13" width="25" height="25" transform="translate(88 752)" fill="#fff" stroke="#707070" stroke-width="1"/>
    </clipPath>
  </defs>
  <g id="ikona_konkursy" transform="translate(-88 -752)" clip-path="url(#clip-path)">
    <g id="trophy" transform="translate(88 752)">
      <g id="Group_42" data-name="Group 42">
        <path id="Path_27" data-name="Path 27" d="M14.7,16.348a.306.306,0,0,0-.4-.311,8.857,8.857,0,0,1-1.8.269,8.857,8.857,0,0,1-1.8-.269.306.306,0,0,0-.4.311v1.206a.417.417,0,0,0,.416.416h3.577a.417.417,0,0,0,.416-.416Z" fill="#fff"/>
      </g>
      <g id="Group_43" data-name="Group 43">
        <path id="Path_28" data-name="Path 28" d="M18.823.832A.832.832,0,0,0,17.991,0H7.009a.832.832,0,0,0-.832.832V7.7a8.616,8.616,0,0,0,1.8,5.506,5.768,5.768,0,0,0,9.047,0,8.616,8.616,0,0,0,1.8-5.506V.832Z" fill="#fff"/>
      </g>
      <g id="Group_44" data-name="Group 44">
        <path id="Path_29" data-name="Path 29" d="M5.386,9.363c-1.138-.424-1.663-1.406-1.663-3.04V2.607H5.262V.943H2.891a.832.832,0,0,0-.832.832V6.323c0,2.774,1.329,4.465,3.773,4.859A10.1,10.1,0,0,1,5.386,9.363Z" fill="#fff"/>
      </g>
      <g id="Group_45" data-name="Group 45">
        <path id="Path_30" data-name="Path 30" d="M7.009,19.218a.832.832,0,0,0-.832.832v4.118A.832.832,0,0,0,7.009,25H17.991a.832.832,0,0,0,.832-.832V20.05a.832.832,0,0,0-.832-.832Z" fill="#fff"/>
      </g>
      <g id="Group_46" data-name="Group 46">
        <path id="Path_31" data-name="Path 31" d="M22.109.943H19.738V2.607h1.539V6.323c0,1.633-.524,2.616-1.663,3.04a10.1,10.1,0,0,1-.446,1.82c2.444-.395,3.773-2.085,3.773-4.859V1.775A.832.832,0,0,0,22.109.943Z" fill="#fff"/>
      </g>
    </g>
  </g>
</svg>
