<svg xmlns="http://www.w3.org/2000/svg" xmlns:xlink="http://www.w3.org/1999/xlink" width="25" height="25" viewBox="0 0 25 25">
  <defs>
    <clipPath id="clip-path">
      <rect id="Rectangle_10" data-name="Rectangle 10" width="25" height="25" transform="translate(88 632)" fill="#fff" stroke="#707070" stroke-width="1"/>
    </clipPath>
  </defs>
  <g id="ikony_zadania" transform="translate(-88 -632)" clip-path="url(#clip-path)">
    <g id="clipboard_2_" data-name="clipboard (2)" transform="translate(88 632)">
      <g id="Group_47" data-name="Group 47">
        <path id="Path_32" data-name="Path 32" d="M21.25,2.5H16.019a3.726,3.726,0,0,0-7.038,0H3.75A2.5,2.5,0,0,0,1.25,5V22.5A2.5,2.5,0,0,0,3.75,25h17.5a2.5,2.5,0,0,0,2.5-2.5V5A2.5,2.5,0,0,0,21.25,2.5Zm-8.75,0a1.25,1.25,0,1,1-1.25,1.25A1.25,1.25,0,0,1,12.5,2.5ZM10,20,5,15l1.769-1.769L10,16.462l8.231-8.231L20,10Z" fill="#fff"/>
      </g>
    </g>
  </g>
</svg>
